<svg xmlns="http://www.w3.org/2000/svg" width="49" height="49" fill="none"><g clip-path="url(#a)"><path fill="#7CACF8" d="m7.705 11.648 7.07-6.835 7.01 6.775.063.06a9.506 9.506 0 0 1 2.831 5.485l-10.96 10.96a10.103 10.103 0 0 1-6.013-2.777C3.8 21.542 3.8 15.422 7.705 11.648Z"/><path fill="#ABABAB" fill-rule="evenodd" d="m39.307 11.343-28 28-1.06-1.06 28-28 1.06 1.06ZM41.046 40.3a.3.3 0 0 1 .14.183l.958 3.575a.3.3 0 0 0 .368.212l1.931-.517a.3.3 0 0 0 .213-.368l-.716-2.67a.3.3 0 0 1 .212-.367l2.67-.715a.3.3 0 0 0 .212-.368l-.517-1.932a.3.3 0 0 0-.368-.212l-3.575.958a.3.3 0 0 1-.227-.03l-1.491-.86a.313.313 0 0 1-.147-.332 4.641 4.641 0 0 0 .002-1.722.313.313 0 0 1 .147-.33l1.488-.86a.3.3 0 0 1 .228-.03l3.575.958a.3.3 0 0 0 .368-.212l.517-1.932a.3.3 0 0 0-.212-.367l-2.67-.716a.3.3 0 0 1-.212-.367l.716-2.67a.3.3 0 0 0-.213-.368l-1.931-.517a.3.3 0 0 0-.368.212l-.958 3.575a.3.3 0 0 1-.14.182l-1.48.855a.313.313 0 0 1-.362-.039 4.611 4.611 0 0 0-1.499-.874.313.313 0 0 1-.213-.292V29.64a.3.3 0 0 1 .088-.212l2.617-2.617a.3.3 0 0 0 0-.424l-1.414-1.415a.3.3 0 0 0-.424 0l-1.955 1.955a.3.3 0 0 1-.424 0l-1.954-1.955a.3.3 0 0 0-.425 0l-1.414 1.415a.3.3 0 0 0 0 .424l2.617 2.617a.3.3 0 0 1 .088.212v1.69c0 .133-.089.25-.215.293a4.612 4.612 0 0 0-1.52.873.313.313 0 0 1-.36.039l-1.46-.843a.3.3 0 0 1-.139-.182l-.958-3.575a.3.3 0 0 0-.367-.212l-1.932.517a.3.3 0 0 0-.212.368l.715 2.67a.3.3 0 0 1-.212.367l-2.67.716a.3.3 0 0 0-.212.367l.518 1.932a.3.3 0 0 0 .367.212l3.575-.958a.3.3 0 0 1 .228.03l1.456.84a.314.314 0 0 1 .147.333 4.635 4.635 0 0 0 .001 1.757.313.313 0 0 1-.146.333l-1.458.841a.3.3 0 0 1-.228.03l-3.575-.958a.3.3 0 0 0-.367.212l-.518 1.932a.3.3 0 0 0 .212.368l2.67.715a.3.3 0 0 1 .212.367l-.715 2.67a.3.3 0 0 0 .212.368l1.932.517a.3.3 0 0 0 .367-.212l.958-3.575a.3.3 0 0 1 .14-.182l1.467-.847a.313.313 0 0 1 .36.038c.44.378.951.675 1.512.867.126.044.215.16.215.294v1.7a.3.3 0 0 1-.088.212l-2.617 2.617a.3.3 0 0 0 0 .424l1.414 1.415a.3.3 0 0 0 .425 0l1.954-1.955a.3.3 0 0 1 .424 0l1.955 1.955a.3.3 0 0 0 .424 0l1.414-1.415a.3.3 0 0 0 0-.424l-2.617-2.617a.3.3 0 0 1-.088-.212V40.64c0-.132.088-.248.213-.292a4.612 4.612 0 0 0 1.492-.868.313.313 0 0 1 .36-.039l1.49.86Zm-4.872-6.325a2.016 2.016 0 1 0 0 4.033 2.016 2.016 0 0 0 0-4.033Z" clip-rule="evenodd"/></g><defs><clipPath id="a"><path fill="#fff" d="M.777.813h48v48h-48z"/></clipPath></defs></svg>