<svg xmlns="http://www.w3.org/2000/svg" width="49" height="49" fill="none"><path fill="#ABABAB" fill-rule="evenodd" d="m39.307 11.12-28 28-1.06-1.061 28-28 1.06 1.06Z" clip-rule="evenodd"/><path fill="#7CACF8" d="m7.705 11.424 7.07-6.834 7.01 6.774.063.06a9.594 9.594 0 0 1 2.334 3.546c.442 1.182-.029 2.464-.921 3.357l-8.198 8.198c-.85.85-2.053 1.318-3.207.979a10.029 10.029 0 0 1-4.15-2.412C3.8 21.318 3.8 15.198 7.705 11.424Z"/><path fill="url(#a)" d="M21.963 35.216c-.504.505-.662 1.245-.614 1.957a5.247 5.247 0 0 0 4.88 4.88 5.247 5.247 0 0 1 3.094 1.28 5.247 5.247 0 0 0 6.901 0 5.247 5.247 0 0 1 3.095-1.28 5.247 5.247 0 0 0 4.88-4.88 5.247 5.247 0 0 1 1.28-3.095 5.247 5.247 0 0 0 0-6.9 5.247 5.247 0 0 1-1.28-3.095 5.247 5.247 0 0 0-4.88-4.88c-.712-.048-1.452.11-1.957.614l-15.399 15.4Z"/><defs><radialGradient id="a" cx="0" cy="0" r="1" gradientTransform="matrix(7.97357 9.89715 -10.5322 8.48519 30.712 31.622)" gradientUnits="userSpaceOnUse"><stop offset=".156" stop-color="#FFD535"/><stop offset=".546" stop-color="#FFD323"/><stop offset=".974" stop-color="#E2A93A"/></radialGradient></defs></svg>