<svg xmlns="http://www.w3.org/2000/svg" width="49" height="49" fill="none"><g clip-path="url(#a)"><path fill="#ABABAB" fill-rule="evenodd" d="M18.213 17.821a.3.3 0 0 1 .14.182l.958 3.575a.3.3 0 0 0 .367.213l1.932-.518a.3.3 0 0 0 .212-.368l-.715-2.67a.3.3 0 0 1 .212-.367l2.67-.715a.3.3 0 0 0 .212-.368l-.518-1.931a.3.3 0 0 0-.367-.213l-3.575.958a.3.3 0 0 1-.228-.03l-1.49-.86a.313.313 0 0 1-.148-.331 4.642 4.642 0 0 0 .002-1.723.313.313 0 0 1 .147-.33l1.489-.86a.3.3 0 0 1 .227-.03l3.576.958a.3.3 0 0 0 .367-.212l.518-1.932a.3.3 0 0 0-.212-.367l-2.67-.716a.3.3 0 0 1-.212-.367l.715-2.67a.3.3 0 0 0-.212-.367l-1.932-.518a.3.3 0 0 0-.367.212l-.958 3.575a.3.3 0 0 1-.14.183l-1.481.855a.313.313 0 0 1-.361-.04 4.613 4.613 0 0 0-1.5-.873.313.313 0 0 1-.212-.293V7.162a.3.3 0 0 1 .087-.213l2.618-2.617a.3.3 0 0 0 0-.424l-1.415-1.414a.3.3 0 0 0-.424 0l-1.954 1.954a.3.3 0 0 1-.425 0l-1.954-1.954a.3.3 0 0 0-.424 0L9.354 3.908a.3.3 0 0 0 0 .424L11.97 6.95a.3.3 0 0 1 .088.213V8.85c0 .134-.09.25-.216.294a4.612 4.612 0 0 0-1.519.873.313.313 0 0 1-.36.04l-1.46-.843a.3.3 0 0 1-.14-.183l-.957-3.575a.3.3 0 0 0-.368-.212l-1.932.518a.3.3 0 0 0-.212.367l.716 2.67a.3.3 0 0 1-.213.368l-2.67.715a.3.3 0 0 0-.212.367l.518 1.932a.3.3 0 0 0 .367.212l3.576-.958a.3.3 0 0 1 .227.03l1.456.84a.313.313 0 0 1 .147.333 4.64 4.64 0 0 0 .002 1.757.313.313 0 0 1-.147.333l-1.458.841a.3.3 0 0 1-.227.03l-3.575-.958a.3.3 0 0 0-.368.213l-.518 1.931a.3.3 0 0 0 .213.368l2.67.715a.3.3 0 0 1 .212.368l-.716 2.67a.3.3 0 0 0 .212.367l1.932.518a.3.3 0 0 0 .368-.213l.958-3.575a.3.3 0 0 1 .14-.182l1.466-.847a.313.313 0 0 1 .36.038c.44.379.952.676 1.512.868.127.043.216.16.216.293v1.7a.3.3 0 0 1-.088.212l-2.617 2.618a.3.3 0 0 0 0 .424l1.414 1.414a.3.3 0 0 0 .424 0l1.954-1.954a.3.3 0 0 1 .425 0l1.954 1.954a.3.3 0 0 0 .425 0l1.414-1.414a.3.3 0 0 0 0-.424l-2.618-2.618a.3.3 0 0 1-.087-.212v-1.712c0-.133.087-.25.212-.293A4.61 4.61 0 0 0 16.363 17a.313.313 0 0 1 .361-.04l1.489.86Zm-4.873-6.325a2.016 2.016 0 1 0 0 4.032 2.016 2.016 0 0 0 0-4.032ZM39.307 11.179l-28 28-1.06-1.06 28-28 1.06 1.06Z" clip-rule="evenodd"/><path fill="#7CACF8" d="m36.775 21.315-7.072 6.834c-3.904 3.775-3.904 9.895.001 13.669 3.905 3.774 10.237 3.774 14.142 0 3.905-3.774 3.905-9.894 0-13.668l-.062-.06-7.01-6.775Z"/></g><defs><clipPath id="a"><path fill="#fff" d="M.777.648h48v48h-48z"/></clipPath></defs></svg>