<svg xmlns="http://www.w3.org/2000/svg" width="49" height="49" fill="none"><path fill="#7CACF8" d="m36.776 21.196-7.072 6.834c-3.904 3.775-3.904 9.894.001 13.669 3.905 3.774 10.237 3.774 14.142 0 3.905-3.775 3.905-9.894 0-13.668l-.062-.06-7.01-6.775Z"/><path fill="url(#a)" d="M28.2 11.985a5.247 5.247 0 0 0-4.878-4.88 5.247 5.247 0 0 1-3.095-1.282 5.247 5.247 0 0 0-6.9 0 5.247 5.247 0 0 1-3.095 1.282 5.247 5.247 0 0 0-4.88 4.88 5.247 5.247 0 0 1-1.282 3.094 5.247 5.247 0 0 0 0 6.9 5.247 5.247 0 0 1 1.282 3.095 5.247 5.247 0 0 0 4.88 4.88c.712.048 1.452-.11 1.956-.614l15.399-15.4c.505-.504.662-1.243.614-1.955Z"/><path fill="#ABABAB" fill-rule="evenodd" d="m39.307 11.06-28 28-1.06-1.061 28-28 1.06 1.06Z" clip-rule="evenodd"/><defs><radialGradient id="a" cx="0" cy="0" r="1" gradientTransform="matrix(7.97357 9.89715 -10.5322 8.48519 12.344 17.153)" gradientUnits="userSpaceOnUse"><stop offset=".156" stop-color="#FFD535"/><stop offset=".546" stop-color="#FFD323"/><stop offset=".974" stop-color="#E2A93A"/></radialGradient></defs></svg>